<?xml version="1.0" encoding="UTF-8"?>
<svg version="1.1" xmlns="http://www.w3.org/2000/svg" width="1080" height="1080">
<path d="M0 0 C4.53232752 0.00463137 9.06438662 -0.00231566 13.59667969 -0.02050781 C105.73650487 -0.38634403 215.11007223 5.50154151 308.55908203 80.31567383 C309.31060547 81.0040332 310.06212891 81.69239258 310.83642578 82.40161133 C323.13406214 94.00986843 332.64693099 108.46437588 340.55908203 123.31567383 C340.91309082 123.97970215 341.26709961 124.64373047 341.63183594 125.32788086 C354.54571748 150.0466621 360.94482028 177.68353509 363.55908203 205.31567383 C363.66994141 206.47711914 363.78080078 207.63856445 363.89501953 208.83520508 C364.63372888 217.72966498 364.55908203 226.32681909 364.55908203 235.31567383 C320.99908203 235.31567383 277.43908203 235.31567383 232.55908203 235.31567383 C231.56908203 225.08567383 230.57908203 214.85567383 229.55908203 204.31567383 C225.215336 180.30441105 218.88632811 159.05798989 197.91845703 144.47973633 C148.69250942 113.67989479 72.1832741 122.12367098 16.55981445 122.13037109 C12.93606588 122.13045245 9.31244351 122.12346609 5.6887207 122.10986328 C-13.38704247 122.03956434 -32.41294843 122.17181371 -51.46435547 123.21411133 C-52.20007215 123.25385889 -52.93578884 123.29360645 -53.69379997 123.33455849 C-98.39812411 125.81649304 -154.53210865 129.09051214 -187.44091797 163.31567383 C-204.21782945 183.26118688 -205.31158026 208.5854975 -207.44091797 233.31567383 C-206.25217512 233.36385097 -205.06343227 233.4120281 -203.83866692 233.46166515 C-188.61246391 234.11394586 -173.43269335 235.22082664 -158.23828125 236.38525391 C-155.46110228 236.59622198 -152.68385696 236.80631115 -149.90661621 237.01646423 C-143.19252752 237.52508907 -136.4786893 238.03694724 -129.76494648 238.55011538 C-124.28959436 238.96859864 -118.81416441 239.386049 -113.33868027 239.80280113 C-96.0285879 241.12040682 -78.71876488 242.44149531 -61.40914415 243.76528194 C-47.85745197 244.8015392 -34.30536177 245.8324834 -20.75307383 246.86091713 C-6.74767781 247.92379191 7.2574172 248.99055835 21.26221669 250.06126517 C29.08831998 250.65952214 36.91452757 251.25631749 44.74105453 251.84900856 C128.14959089 258.16831347 128.14959089 258.16831347 161.80908203 263.12817383 C162.65966187 263.2516217 163.5102417 263.37506958 164.38659668 263.5022583 C228.78310807 272.89914242 305.59125117 288.18227084 347.12158203 343.25317383 C361.42523949 363.01039105 369.66499897 385.38136208 373.55908203 409.31567383 C373.82724731 410.9499231 373.82724731 410.9499231 374.10083008 412.6171875 C375.72275599 423.80450279 375.8981817 434.90221513 375.87475586 446.19433594 C375.87161104 449.34907132 375.89509061 452.50285138 375.92041016 455.6574707 C376.06172862 500.84459975 364.03942289 543.95189378 332.55908203 577.31567383 C331.83591797 578.11489258 331.11275391 578.91411133 330.36767578 579.73754883 C287.60747094 625.17478849 216.22099328 632.32436156 157.55908203 634.31567383 C61.1496654 637.16563502 -33.4913898 615.1815878 -158.42480469 559.58862305 C-161.63741634 558.13137419 -164.85231386 556.67944401 -168.0703125 555.23413086 C-187.44740577 546.53034118 -206.56927747 537.38566801 -225.56591797 527.87817383 C-226.57090332 527.37533875 -227.57588867 526.87250366 -228.61132812 526.35443115 C-238.43435218 521.43183174 -248.22549851 516.45858399 -257.93310547 511.31176758 C-268.67201614 505.61879207 -279.55508359 500.22084291 -290.44091797 494.81567383 C-303.83944246 488.16287278 -317.18359773 481.437414 -330.38061523 474.39172363 C-333.04986468 472.99763465 -335.74643575 471.66022287 -338.44091797 470.31567383 C-338.5097747 433.41476371 -338.56254308 396.51386337 -338.59411396 359.61290187 C-338.59786551 355.2438876 -338.60174853 350.87487346 -338.60571289 346.50585938 C-338.60649982 345.63616701 -338.60728675 344.76647464 -338.60809753 343.87042796 C-338.62110651 329.83876856 -338.64473514 315.80714652 -338.67237636 301.77550919 C-338.70055667 287.34852248 -338.71712073 272.92155516 -338.72318345 258.49454206 C-338.72727389 249.61185576 -338.74013242 240.72927507 -338.76466737 231.84662133 C-338.78068098 225.7328893 -338.78528355 219.61921085 -338.7814221 213.50545944 C-338.77952447 209.99250295 -338.78216611 206.4797293 -338.79853439 202.96680641 C-338.88317835 181.61402126 -338.04580253 160.22263807 -332.69091797 139.44067383 C-332.43487793 138.41731934 -332.17883789 137.39396484 -331.91503906 136.33959961 C-325.00116708 109.59679281 -312.85053974 87.00021943 -293.44091797 67.31567383 C-292.61333984 66.47520508 -291.78576172 65.63473633 -290.93310547 64.76879883 C-243.83866432 19.54661375 -168.56077089 9.80462953 -106.37841797 4.06567383 C-105.56100128 3.9886322 -104.74358459 3.91159058 -103.90139771 3.83221436 C-97.42070051 3.23199387 -90.93466868 2.75083045 -84.44091797 2.31567383 C-82.49665924 2.18486923 -82.49665924 2.18486923 -80.51312256 2.05142212 C-53.68064397 0.29218381 -26.88388296 -0.02973328 0 0 Z M-207.44091797 347.31567383 C-207.44091797 369.75567383 -207.44091797 392.19567383 -207.44091797 415.31567383 C-202.38779297 417.91442383 -197.33466797 420.51317383 -192.12841797 423.19067383 C-174.54163094 432.23608957 -174.54163094 432.23608957 -166.69970703 436.42626953 C-91.72416436 476.46183677 -8.64044506 507.73878396 89.55908203 517.31567383 C90.32397949 517.37352051 91.08887695 517.43136719 91.87695312 517.4909668 C162.83403497 522.88478977 162.83403497 522.88478977 226.60205078 497.84301758 C238.85424838 486.35141524 243.74436259 471.83225878 244.55908203 455.31567383 C244.61193359 454.31922852 244.66478516 453.3227832 244.71923828 452.29614258 C245.12654086 437.65095861 242.0331398 424.40285198 232.37158203 413.19067383 C230.79201095 411.54175573 229.18815539 409.91570373 227.55908203 408.31567383 C226.87716797 407.63762695 226.19525391 406.95958008 225.49267578 406.26098633 C206.56803536 389.40146767 177.56990848 383.53652292 153.55908203 378.31567383 C152.57520508 378.10056152 151.59132813 377.88544922 150.57763672 377.66381836 C136.16852643 374.59054658 121.61391023 372.52392614 107.01028442 370.63500977 C105.1324322 370.39204728 103.25499647 370.14582696 101.37814331 369.89526367 C86.15673929 367.88205063 70.88296223 366.64965709 55.57983398 365.46337891 C54.47627615 365.37730802 53.37271831 365.29123713 52.23571932 365.20255804 C26.94751395 363.23245167 1.64726859 361.44081668 -23.65618157 359.6792326 C-29.91925288 359.24283913 -36.18217016 358.80424422 -42.44511414 358.36602783 C-52.89600036 357.63513004 -63.34700921 356.90600676 -73.7980957 356.17797852 C-84.51568998 355.43136138 -95.23313553 354.68265749 -105.95043945 353.93188477 C-119.00276717 353.01753934 -132.05524275 352.10532853 -145.10783958 351.19483185 C-150.05711602 350.84953856 -155.00633185 350.50339442 -159.95549965 350.15654755 C-165.74663729 349.75078591 -171.5379133 349.34706012 -177.32930374 348.9449234 C-179.45061543 348.79729184 -181.57187782 348.64894996 -183.69308662 348.49984741 C-186.58487761 348.29669575 -189.47683555 348.09611048 -192.36885071 347.8961792 C-193.20761271 347.83665251 -194.04637472 347.77712581 -194.91055375 347.71579528 C-196.07784211 347.63589398 -196.07784211 347.63589398 -197.26871204 347.55437851 C-197.93443566 347.5079426 -198.60015928 347.46150669 -199.28605634 347.41366363 C-202.0017334 347.29017141 -204.72243452 347.31567383 -207.44091797 347.31567383 Z " fill="#0065F8" transform="translate(520.44091796875,228.684326171875)"/>
<path d="M0 0 C13.51598863 9.13400384 22.26888865 22.85069886 25.7109375 38.83203125 C27.21781738 58.91614192 24.42369585 74.90065848 11.5859375 91.01953125 C2.55890519 100.69135158 -11.27861132 109.00593406 -24.64819336 110.0090332 C-44.58248244 110.47783359 -61.05899962 108.23008994 -76.3515625 93.95703125 C-90.43467667 78.51103506 -94.12527423 61.98018287 -93.46386719 41.58789062 C-92.6232319 28.33497011 -85.03373068 14.71687577 -75.2890625 5.83203125 C-53.22119936 -11.91820649 -24.42025022 -15.22259692 0 0 Z " fill="#0065F8" transform="translate(275.2890625,753.16796875)"/>
</svg>
